<?xml version="1.0" encoding="UTF-8"?>
<svg version="1.1" xmlns="http://www.w3.org/2000/svg" width="1536" height="1024">
<path d="M0 0 C506.88 0 1013.76 0 1536 0 C1536 337.92 1536 675.84 1536 1024 C1029.12 1024 522.24 1024 0 1024 C0 686.08 0 348.16 0 0 Z " fill="#000000" transform="translate(0,0)"/>
<path d="M0 0 C2.52126995 1.59433247 4.90248956 3.25217507 7.265625 5.07421875 C14.02837348 10.07471664 21.12024707 14.31221708 28.390625 18.51171875 C29.74945801 19.30570068 29.74945801 19.30570068 31.13574219 20.11572266 C58.79622685 36.23203073 87.26142502 47.77148249 118.390625 55.38671875 C120.06922607 55.79796997 120.06922607 55.79796997 121.78173828 56.2175293 C128.60227363 57.81434165 135.42322197 59.03814376 142.34375 60.10595703 C143.21725098 60.24224014 144.09075195 60.37852325 144.99072266 60.51893616 C147.1237697 60.85149526 149.25716234 61.18183643 151.390625 61.51171875 C151.43753338 81.65382232 151.47270554 101.79591467 151.49424934 121.93806171 C151.50452239 131.29230396 151.51850592 140.64651209 151.54150391 150.00073242 C151.56156031 158.162443 151.57437022 166.32412885 151.57880199 174.48586339 C151.58138882 178.79963604 151.58738415 183.113338 151.60208511 187.42708778 C151.74172025 230.0792742 151.74172025 230.0792742 146.765625 249.82421875 C146.50547607 250.87198486 146.24532715 251.91975098 145.97729492 252.99926758 C136.53818046 289.71246943 117.47220621 323.54638329 91.56640625 351.1875 C89.71214097 353.16826812 87.95016948 355.18737986 86.203125 357.26171875 C78.02863085 366.66238703 68.9307697 375.50917979 59.390625 383.51171875 C58.34505462 384.41907758 57.30092425 385.32809701 56.2578125 386.23828125 C50.09488545 391.59956181 43.86219904 396.79215686 37.35009766 401.72631836 C33.83850109 404.38826697 30.38107677 407.10628409 26.95239258 409.87426758 C24.44018763 411.90150604 21.91632709 413.91381941 19.38916016 415.92236328 C18.00635542 417.02205286 16.62597617 418.12479673 15.24755859 419.22998047 C13.09910692 420.94423691 10.9348176 422.63631966 8.765625 424.32421875 C8.10264404 424.85837402 7.43966309 425.3925293 6.7565918 425.94287109 C2.1714914 429.46498974 2.1714914 429.46498974 -1.08984375 429.66015625 C-4.81205201 427.96352179 -7.99822582 425.72956301 -11.296875 423.32421875 C-12.03437988 422.79465576 -12.77188477 422.26509277 -13.53173828 421.71948242 C-25.89195635 412.77181033 -37.91867931 403.31627022 -49.609375 393.51171875 C-50.12886719 393.07714355 -50.64835937 392.64256836 -51.18359375 392.19482422 C-66.83777959 379.06300574 -82.52700549 365.25756468 -95.609375 349.51171875 C-96.02912598 349.0110791 -96.44887695 348.51043945 -96.88134766 347.99462891 C-120.40440115 319.80787437 -138.19541125 287.73679776 -147.859375 252.26171875 C-148.09350098 251.43140137 -148.32762695 250.60108398 -148.56884766 249.74560547 C-154.19749175 228.05817753 -154.02868477 205.89868912 -153.91355681 183.67871976 C-153.89451254 179.36801719 -153.89301814 175.05730492 -153.88948059 170.74656677 C-153.88024014 162.6228503 -153.85573754 154.49925823 -153.82543212 146.37559599 C-153.79163541 137.11044399 -153.77533928 127.84528534 -153.76034582 118.58008683 C-153.72917857 99.55722754 -153.6765779 80.53448322 -153.609375 61.51171875 C-152.64454697 61.34534409 -151.67971893 61.17896942 -150.68565369 61.0075531 C-147.04517101 60.37873798 -143.40558252 59.74486769 -139.76622009 59.10960388 C-138.20238652 58.83732718 -136.63832555 58.56635275 -135.07402039 58.29679871 C-91.78320119 50.83238599 -48.38875553 34.13708192 -13.25 7.23046875 C-12.57018066 6.71081543 -11.89036133 6.19116211 -11.18994141 5.65576172 C-9.91767985 4.66749563 -8.65855732 3.66199765 -7.41552734 2.63720703 C-3.27108296 -0.61210385 -3.27108296 -0.61210385 0 0 Z " fill="#008E3F" transform="translate(232.609375,284.48828125)"/>
<path d="M0 0 C1.25296875 0.40863281 2.5059375 0.81726563 3.796875 1.23828125 C20.9623426 7.12663444 36.4384675 16.2836528 51 27 C51.56380371 27.41217773 52.12760742 27.82435547 52.70849609 28.24902344 C61.19664389 34.4949715 69.19935296 41.2889645 77.06982422 48.29150391 C79.06557068 50.05803992 81.08140695 51.79989798 83.09765625 53.54296875 C84.39957891 54.69402277 85.70039921 55.8463251 87 57 C87.6180249 57.52762939 88.2360498 58.05525879 88.87280273 58.59887695 C90.5625 60.125 90.5625 60.125 93 63 C93.11554264 66.2255655 92.36835706 67.50196622 90.46875 70.0703125 C89.8190625 70.74835938 89.169375 71.42640625 88.5 72.125 C83.75730989 77.23121182 79.38621909 82.58705837 75 88 C73.58418251 89.72986203 72.1675072 91.4590223 70.75 93.1875 C66.41932336 98.47970799 62.10818044 103.78765843 57.79785156 109.09643555 C54.70587121 112.90365071 51.60828163 116.70606801 48.5 120.5 C47.81164062 121.35078125 47.12328125 122.2015625 46.4140625 123.078125 C44.48330816 125.41502508 42.51831748 127.70297917 40.5234375 129.984375 C39.30718298 131.40615703 38.09103692 132.82803185 36.875 134.25 C36.28138672 134.91193359 35.68777344 135.57386719 35.07617188 136.25585938 C33.49496246 138.12592555 32.12729288 139.82441818 31 142 C31.28765252 144.33940411 31.61899036 146.67397609 32 149 C30.41940866 151.47595522 29.05738625 153.23565405 27.0625 155.3125 C26.03270496 156.45208756 25.0040668 157.59272157 23.9765625 158.734375 C23.46641602 159.28931641 22.95626953 159.84425781 22.43066406 160.41601562 C20.49883838 162.55486973 18.71515646 164.79470781 16.9375 167.0625 C14.01131108 170.7546443 11.02369869 174.38720933 8 178 C7.16855469 179.0003125 6.33710938 180.000625 5.48046875 181.03125 C3.85156251 182.98080708 2.20868087 184.9187884 0.55078125 186.84375 C-0.18785156 187.7203125 -0.92648437 188.596875 -1.6875 189.5 C-2.35136719 190.2734375 -3.01523437 191.046875 -3.69921875 191.84375 C-5.18068533 193.86204579 -5.18068533 193.86204579 -4.94921875 195.97265625 C-3.68895331 198.66433429 -2.04485038 200.66579093 -0.125 202.9375 C0.68324219 203.90042969 1.49148438 204.86335937 2.32421875 205.85546875 C3.21605031 206.90372711 4.10798074 207.95190136 5 209 C5.94460648 210.12059156 6.88860705 211.24169414 7.83203125 212.36328125 C12.52477011 217.93435734 17.24897858 223.47854267 22 229 C20.74155722 232.88019859 19.57583797 234.9411842 16 237 C15.01 237 14.02 237 13 237 C11.4140625 235.33984375 11.4140625 235.33984375 9.625 232.9375 C6.0057561 228.23046851 2.21996418 223.7206475 -1.6875 219.25 C-2.77503994 218.00547074 -3.86228873 216.76068698 -4.94921875 215.515625 C-5.46403809 214.92974609 -5.97885742 214.34386719 -6.50927734 213.74023438 C-7.49836912 212.58559202 -8.46292413 211.40944499 -9.40087891 210.21289062 C-10.54044149 208.75936257 -11.76420082 207.37264236 -13 206 C-13.99 206 -14.98 206 -16 206 C-15.79503906 206.67546875 -15.59007812 207.3509375 -15.37890625 208.046875 C-15.10949219 208.93890625 -14.84007812 209.8309375 -14.5625 210.75 C-14.29566406 211.63171875 -14.02882813 212.5134375 -13.75390625 213.421875 C-9.79753843 226.95142297 -10.41912908 242.44229946 -17 255 C-23.92352743 266.44264993 -33.23894328 275.26022176 -46.546875 278.6484375 C-56.44608828 280.06711456 -65.4328406 279.07551933 -73.66796875 273.046875 C-83.79262784 264.28544535 -92.07291268 253.62726034 -94 240 C-94.18724198 236.97801887 -94.23419087 233.96479859 -94.25 230.9375 C-94.26897339 229.66169067 -94.26897339 229.66169067 -94.28833008 228.36010742 C-94.28205493 223.27675084 -93.66762621 219.55696082 -91.6875 214.8125 C-90.78338322 211.79737566 -90.47340973 210.00721477 -91.95654297 207.17041016 C-94.98734846 202.76922963 -98.58731985 198.87527475 -102.21630859 194.96533203 C-104.7946222 192.12445816 -107.11150697 189.1102621 -109.4375 186.0625 C-113.53344929 180.79800491 -117.74595585 175.63728445 -122 170.5 C-126.71297432 164.8085006 -131.34452844 159.06675554 -135.88671875 153.23828125 C-139.36854107 148.7791053 -142.9225442 144.38271144 -146.5 140 C-152.42510476 132.73784916 -158.25546666 125.40584437 -164 118 C-164.59554687 117.25234375 -165.19109375 116.5046875 -165.8046875 115.734375 C-167 114 -167 114 -167 112 C-166.34 112 -165.68 112 -165 112 C-163.93694893 109.42131296 -163.93694893 109.42131296 -164 106 C-165.62653706 102.80939375 -167.83962964 100.10860505 -170.0625 97.3125 C-171.35207977 95.63060482 -172.64112617 93.94830057 -173.9296875 92.265625 C-174.59967773 91.40259766 -175.26966797 90.53957031 -175.95996094 89.65039062 C-179.27619665 85.3419829 -182.47681084 80.94977447 -185.6875 76.5625 C-186.83652598 75.0007768 -187.9862179 73.43954325 -189.13671875 71.87890625 C-189.61842529 71.2247876 -190.10013184 70.57066895 -190.59643555 69.89672852 C-191.59996198 68.54059756 -192.63077609 67.20449018 -193.67895508 65.88256836 C-195 64 -195 64 -195 62 C-194.34 62 -193.68 62 -193 62 C-193 61.34 -193 60.68 -193 60 C-191.63891602 58.64916992 -191.63891602 58.64916992 -189.69140625 57.04296875 C-184.20331757 52.37052986 -179.07107814 47.36856358 -173.9375 42.3125 C-173.44902588 41.84287842 -172.96055176 41.37325684 -172.45727539 40.8894043 C-171.0313141 39.51787804 -169.62275346 38.12833164 -168.21484375 36.73828125 C-167.38073975 35.92399658 -166.54663574 35.10971191 -165.68725586 34.27075195 C-163.75531013 32.18074535 -163.75531013 32.18074535 -164.13476562 29.83764648 C-165.27030925 27.42589793 -166.76345647 25.71259294 -168.5625 23.75 C-169.20316406 23.04359375 -169.84382813 22.3371875 -170.50390625 21.609375 C-170.99761719 21.07828125 -171.49132812 20.5471875 -172 20 C-171.34 18.68 -170.68 17.36 -170 16 C-166 16 -166 16 -163.859375 17.96875 C-162.81523437 19.22171875 -162.81523437 19.22171875 -161.75 20.5 C-161.04359375 21.3353125 -160.3371875 22.170625 -159.609375 23.03125 C-159.07828125 23.6809375 -158.5471875 24.330625 -158 25 C-153.53607877 23.69058311 -150.06572682 21.92659877 -146.1875 19.375 C-125.94435212 6.58800507 -102.54696455 -1.13258627 -79 -5 C-78.3095459 -5.11569336 -77.6190918 -5.23138672 -76.90771484 -5.35058594 C-51.72983647 -9.38815197 -24.27073645 -7.97233832 0 0 Z " fill="#0E0E0E" transform="translate(282,364)"/>
<path d="M0 0 C3.82170353 1.81224864 6.91825211 4.22322014 10.1875 6.875 C29.34794194 22.09874557 49.88358901 34.53175921 72 45 C73.15113281 45.55816406 74.30226563 46.11632812 75.48828125 46.69140625 C105.95338962 61.0174093 139.19108783 67.94788903 172.39331055 72.0559082 C173.12804344 72.14726295 173.86277634 72.23861771 174.61977386 72.33274078 C176.41312177 72.55565025 178.20655238 72.77789417 180 73 C180.07046421 95.87236941 180.12316971 118.74472061 180.15543652 141.61717701 C180.17082493 152.24018319 180.19175847 162.86312144 180.22631836 173.48608398 C180.25646912 182.75829374 180.27563309 192.03045424 180.28226548 201.30271167 C180.28613485 206.20027601 180.29505498 211.09769961 180.31719017 215.99521828 C180.42881196 241.69744355 180.52077132 267.45445481 174.1875 292.5625 C173.79848511 294.16484497 173.79848511 294.16484497 173.40161133 295.79956055 C164.33341974 332.250457 147.06301421 367.12092438 123 396 C122.5477002 396.54849609 122.09540039 397.09699219 121.62939453 397.66210938 C112.37286097 408.87378581 102.56837458 419.50985596 92.3125 429.8125 C91.6117334 430.51793945 90.9109668 431.22337891 90.18896484 431.95019531 C86.17797437 435.94891976 82.06463201 439.76734548 77.77514648 443.46557617 C75.59811908 445.34738297 73.48877024 447.29764495 71.375 449.25 C65.79800432 454.27607665 59.92824973 458.86830419 53.99072266 463.45507812 C51.88481927 465.08938725 49.79127483 466.73863336 47.69921875 468.390625 C38.99631111 475.24449716 30.17348548 481.84643168 21.0625 488.1484375 C18.3222117 490.0490868 15.64644113 492.00986331 13 494.0390625 C12.05012207 494.75594238 12.05012207 494.75594238 11.08105469 495.48730469 C9.89339489 496.38739246 8.71612613 497.30142369 7.55175781 498.23144531 C5.953125 499.4296875 5.953125 499.4296875 3 501 C-0.50997855 499.94814051 -3.29485065 498.27408798 -6.265625 496.1640625 C-7.06468262 495.60050049 -7.86374023 495.03693848 -8.68701172 494.45629883 C-9.53279785 493.85197021 -10.37858398 493.2476416 -11.25 492.625 C-12.57475342 491.68660278 -12.57475342 491.68660278 -13.92626953 490.72924805 C-15.7434583 489.44189611 -17.55937466 488.15274623 -19.37402344 486.86181641 C-21.77477826 485.15968213 -24.18498368 483.47252801 -26.6015625 481.79296875 C-35.65205292 475.49151631 -44.41923064 468.92658023 -53 462 C-53.91910156 461.26394531 -54.83820313 460.52789063 -55.78515625 459.76953125 C-73.89433517 445.12749999 -91.77580197 429.67236354 -107 412 C-107.52094238 411.40203613 -108.04188477 410.80407227 -108.57861328 410.18798828 C-122.98607885 393.55494511 -135.42960923 375.29660614 -146 356 C-146.34047363 355.38092773 -146.68094727 354.76185547 -147.03173828 354.12402344 C-157.27177616 335.23850346 -164.8685071 314.83484958 -170 294 C-170.19819336 293.19900879 -170.39638672 292.39801758 -170.60058594 291.57275391 C-175.0409274 273.19363396 -176.31187204 254.78762874 -176.22705078 235.93066406 C-176.22648452 234.12478136 -176.22680739 232.31889819 -176.22793579 230.51301575 C-176.22850195 225.68166764 -176.21686925 220.85042195 -176.20278788 216.01909733 C-176.19015548 210.94362491 -176.18910028 205.86814929 -176.18673706 200.79266357 C-176.18055862 191.21328821 -176.16419783 181.63395933 -176.14403808 172.05460429 C-176.12156487 161.1353705 -176.11065713 150.21613432 -176.10064721 139.29688311 C-176.07982773 116.86456312 -176.04472366 94.43228418 -176 72 C-175.33122833 71.94792389 -174.66245667 71.89584778 -173.97341919 71.8421936 C-170.88040298 71.5991421 -167.78787012 71.35037851 -164.6953125 71.1015625 C-163.64384033 71.0197876 -162.59236816 70.9380127 -161.5090332 70.85375977 C-100.36265791 65.88958694 -46.29551708 39.17653963 0 0 Z M-3.4296875 39.421875 C-4.13182373 39.946604 -4.83395996 40.47133301 -5.55737305 41.01196289 C-6.32218994 41.58551514 -7.08700684 42.15906738 -7.875 42.75 C-29.8814193 58.90367174 -54.46343584 72.32705903 -80 82 C-80.86012695 82.3295166 -81.72025391 82.6590332 -82.60644531 82.99853516 C-102.63993621 90.53542423 -123.64360472 94.81710834 -144.76350403 98.04641724 C-146.51628269 98.3148025 -146.51628269 98.3148025 -148.30447102 98.5886097 C-149.19399558 98.7243685 -150.08352015 98.8601273 -151 99 C-151.07045254 118.94262312 -151.12316408 138.88522057 -151.15543652 158.82794285 C-151.17082737 168.09017184 -151.19176569 177.35232298 -151.22631836 186.61450195 C-151.25646153 194.69860977 -151.27563133 202.78266114 -151.28226548 210.86682361 C-151.28613611 215.13716854 -151.29506458 219.40735214 -151.31719017 223.67764473 C-151.43016907 246.37194796 -151.19979888 268.8626928 -144.9375 290.875 C-144.49241089 292.47516968 -144.49241089 292.47516968 -144.03833008 294.10766602 C-133.58253136 330.32412825 -114.52562651 363.09144092 -89.03125 390.78515625 C-87.22158012 392.75839244 -85.48160109 394.77107813 -83.75 396.8125 C-76.84646759 404.72983787 -69.26761825 412.2935219 -61.25390625 419.0859375 C-59.40746436 420.65397307 -57.58909956 422.24399941 -55.77734375 423.8515625 C-47.13928989 431.48370406 -38.1954607 438.58278057 -28.98095703 445.50390625 C-26.60260768 447.30012572 -24.24851118 449.12594405 -21.89697266 450.95703125 C-19.82249554 452.56802734 -17.73493464 454.1616692 -15.64306641 455.75 C-14.48091733 456.63413125 -13.32204936 457.52258319 -12.16552734 458.4140625 C-10.28848008 459.85446399 -8.39652698 461.27288354 -6.5 462.6875 C-5.63628784 463.35785278 -5.63628784 463.35785278 -4.75512695 464.04174805 C-2.2437476 465.88588657 -0.58131626 467 2.58203125 467 C5.5164398 465.78641585 7.68041985 464.26968667 10.1875 462.3125 C10.6937793 461.92094727 11.20005859 461.52939453 11.72167969 461.12597656 C12.85766583 460.24557049 13.9904662 459.36104351 15.12060547 458.47314453 C17.14576519 456.88574342 19.18320176 455.31508161 21.22265625 453.74609375 C62.21202471 422.19011426 62.21202471 422.19011426 98 385 C98.41540039 384.50371094 98.83080078 384.00742187 99.25878906 383.49609375 C123.3290133 354.6586604 140.72302161 321.86276326 149.8125 285.375 C150.0074707 284.61396973 150.20244141 283.85293945 150.40332031 283.06884766 C155.06974973 263.19742998 154.27183948 242.632672 154.20278788 222.37064767 C154.19013598 218.02120873 154.18909879 213.6717659 154.18673706 209.3223114 C154.18056419 201.11703847 154.16421124 192.91181996 154.14403808 184.7065708 C154.12154714 175.35202324 154.11065275 165.99747283 154.10064721 156.64290488 C154.07984041 137.42857261 154.04474762 118.2142907 154 99 C153.00803808 98.82913517 153.00803808 98.82913517 151.99603653 98.65481853 C148.97145153 98.13319734 145.94715051 97.60994701 142.92285156 97.08666992 C141.88254791 96.90750786 140.84224426 96.72834579 139.77041626 96.54375458 C91.2880606 88.14435167 42.76090837 68.97669214 3.87280273 38.32324219 C0.66132328 36.05414837 -0.57015769 37.24937993 -3.4296875 39.421875 Z " fill="#0D0E0E" transform="translate(230,247)"/>
<path d="M0 0 C24.78642968 19.81533515 37.68269413 45.65193871 41.61328125 76.82421875 C44.95850854 107.48585233 37.34839222 139.55759237 18.2421875 164.1171875 C16.88915061 165.71933001 15.51359109 167.3026983 14.1171875 168.8671875 C13.37984375 169.69863281 12.6425 170.53007812 11.8828125 171.38671875 C-2.73447559 186.93550069 -24.99309832 197.95366118 -46.45239258 198.99145508 C-75.09693066 199.7551518 -97.86294519 193.82147056 -119.8828125 174.8671875 C-120.48738281 174.34769531 -121.09195313 173.82820312 -121.71484375 173.29296875 C-136.4689089 159.57548897 -145.37177396 140.18334962 -149.8828125 120.8671875 C-150.04652344 120.16932129 -150.21023438 119.47145508 -150.37890625 118.75244141 C-157.41562969 87.25438079 -152.28208255 53.64600644 -135.8828125 25.8671875 C-120.8900101 2.46587425 -99.22550519 -11.77458131 -72.203125 -17.72265625 C-46.126073 -20.94393914 -21.30792977 -15.76440333 0 0 Z " fill="#FDFDFD" transform="translate(825.8828125,334.1328125)"/>
<path d="M0 0 C115.30972222 0 115.30972222 0 137.1640625 20.0703125 C153.40131352 37.13669974 156.8518807 58.07089794 156.43257141 80.61193848 C155.8813815 101.20766577 148.6190739 118.45116213 133.89453125 133.09375 C129.89643949 136.74384537 125.79627357 139.50194085 121 142 C122.24670315 146.09855533 123.74841028 149.5613144 125.984375 153.2109375 C126.58314453 154.19682861 127.18191406 155.18271973 127.79882812 156.19848633 C128.7646582 157.7708606 128.7646582 157.7708606 129.75 159.375 C131.11065931 161.61510582 132.47000082 163.85601254 133.828125 166.09765625 C134.17439941 166.66810165 134.52067383 167.23854706 134.87744141 167.82627869 C138.48706951 173.78154625 142.00076911 179.79179266 145.5 185.8125 C146.32516113 187.23151611 146.32516113 187.23151611 147.16699219 188.67919922 C148.2301333 190.50866376 149.29169774 192.33904558 150.3515625 194.17041016 C151.54432609 196.21782278 152.74898667 198.25831999 153.9609375 200.29443359 C154.60289062 201.3767627 155.24484375 202.4590918 155.90625 203.57421875 C156.79280273 205.0586145 156.79280273 205.0586145 157.69726562 206.57299805 C159 209 159 209 159 211 C122.17249924 214.4368809 122.17249924 214.4368809 112.96142578 209.30810547 C108.38846437 204.57669079 106.45670762 198.61907321 104.36181641 192.48876953 C102.01800216 186.48426871 98.57358693 181.13060865 95.21661377 175.64755249 C93.73628741 173.21365295 92.29791668 170.75688308 90.86868286 168.29270935 C89.86612509 166.57845452 88.83416319 164.88150513 87.80175781 163.18505859 C86 160 86 160 84.86230469 156.95947266 C83.56700173 153.79211369 82.69772891 152.13502124 80 150 C73.60529286 148.22267777 66.68199406 148.74649422 60.125 148.875 C53.81375 148.91625 47.5025 148.9575 41 149 C41 169.46 41 189.92 41 211 C27.47 211 13.94 211 0 211 C0 141.37 0 71.74 0 0 Z " fill="#FDFDFD" transform="translate(485,319)"/>
<path d="M0 0 C1.08015381 0.00829834 2.16030762 0.01659668 3.27319336 0.02514648 C26.34745868 0.50242794 44.00429014 7.9656531 63 20.4375 C61.31111914 25.38603107 59.62040616 30.33393083 57.92797852 35.28125 C57.35227638 36.96499606 56.77707875 38.64891471 56.20239258 40.33300781 C55.37713503 42.751105 54.55007591 45.16857942 53.72265625 47.5859375 C53.33667015 48.71882706 53.33667015 48.71882706 52.94288635 49.87460327 C51.11387171 55.20975659 51.11387171 55.20975659 50 57.4375 C45.93467383 55.98150793 42.28430014 53.98944937 38.51831055 51.90771484 C21.9606104 42.83793377 5.0382387 38.00452834 -13.8671875 42.3203125 C-21.01056154 45.01021145 -25.84816148 48.90300292 -29.12890625 55.81640625 C-30.9638618 61.3377299 -30.66792303 67.22500497 -29 72.75 C-21.08394212 83.38720277 -7.19564859 85.6975163 4.9453125 89.125 C27.38360146 95.46141755 49.72258991 102.41223907 62.25 123.6875 C70.16420239 139.24081218 70.4706922 158.63865887 65.25390625 175.1796875 C58.96777869 191.51186939 47.45812445 202.9153681 31.875 210.6875 C6.57890903 221.4781402 -22.4925096 220.26803177 -47.8125 210.1875 C-58.2814291 205.76231518 -67.4899006 199.97990103 -76 192.4375 C-74.49034892 188.43487526 -72.97863596 184.43303702 -71.46508789 180.43188477 C-70.95151293 179.07337016 -70.43848152 177.71464993 -69.92602539 176.35571289 C-69.18522022 174.39153325 -68.44240032 172.42812528 -67.69921875 170.46484375 C-67.25408936 169.28656006 -66.80895996 168.10827637 -66.3503418 166.89428711 C-64.97401804 163.37098787 -63.50853751 159.90578071 -62 156.4375 C-61.3915625 156.85 -60.783125 157.2625 -60.15625 157.6875 C-40.8725952 170.39202552 -18.32054902 180.67735307 5.33203125 176.90625 C13.39611042 175.03984677 20.32613525 172.70795628 25 165.4375 C27.60319085 160.10715682 27.24107668 155.10570096 26 149.4375 C21.82459569 140.39079066 12.35741153 136.99777765 3.57836914 133.6887207 C-2.14147803 131.68870592 -7.96337682 130.13385181 -13.8125 128.5625 C-32.48528118 123.36885218 -54.12865886 116.73517455 -64.94140625 99.30859375 C-73.93326332 82.5075247 -75.36061501 64.69373103 -70 46.4375 C-63.71187702 29.11637003 -53.20213125 17.03680884 -37 8.4375 C-25.07724404 2.99756643 -13.11997705 -0.1324197 0 0 Z " fill="#FDFDFD" transform="translate(1169,315.5625)"/>
<path d="M0 0 C3.50609484 2.83922954 6.76630673 5.85687145 10 9 C11.31291016 10.20269531 11.31291016 10.20269531 12.65234375 11.4296875 C13.90724609 12.60917969 13.90724609 12.60917969 15.1875 13.8125 C16.32251953 14.87404297 16.32251953 14.87404297 17.48046875 15.95703125 C19 18 19 18 18.75463867 19.90161133 C17.93282929 22.18677846 16.93616661 23.70461565 15.4453125 25.6171875 C14.91768311 26.30047119 14.39005371 26.98375488 13.84643555 27.68774414 C13.27836182 28.40953857 12.71028809 29.13133301 12.125 29.875 C11.5472583 30.61935303 10.9695166 31.36370605 10.37426758 32.13061523 C8.58975111 34.4259004 6.79591107 36.7136235 5 39 C3.89699673 40.41004778 2.7941259 41.82019916 1.69140625 43.23046875 C-0.86407578 46.49359776 -3.42909258 49.74901286 -6 53 C-8.83756419 50.28661805 -11.14088837 47.48888268 -13.4375 44.3125 C-21.1428229 34.65230815 -31.73116772 27.97926675 -44 26 C-60.87389734 24.38964328 -73.6576247 27.80647315 -87 38.62109375 C-100.28408528 50.98596777 -107.45027904 70.40213753 -108.23828125 88.2421875 C-108.70850144 107.71224211 -104.5594613 126.40743207 -91.625 141.5625 C-81.89142073 151.47941723 -69.9750846 157.9478252 -55.90844727 158.29272461 C-40.82406685 158.41987986 -28.53620596 154.83378455 -17.19921875 144.4296875 C-14.74811788 141.99632253 -12.36142463 139.52002778 -10 137 C-9.00269097 135.99731625 -8.00321483 134.9967748 -7 134 C0.37618635 141.77489912 7.65376123 149.53264336 14.328125 157.92578125 C15.9818609 160.05305382 15.9818609 160.05305382 18 162 C17.50926937 167.15267163 13.35804538 170.40451707 10 174 C9.49597656 174.58007812 8.99195313 175.16015625 8.47265625 175.7578125 C-5.16357092 190.6778575 -26.8025557 199.06359297 -46.61401367 200.14233398 C-74.78966369 201.10112093 -98.19393323 194.50030829 -119.27441406 174.83642578 C-133.87301398 160.61181049 -142.04150408 142.49132338 -147 123 C-147.23460937 122.11441406 -147.46921875 121.22882813 -147.7109375 120.31640625 C-153.97990755 94.83168016 -150.60472824 65.79208723 -140 42 C-139.21302734 40.19982422 -139.21302734 40.19982422 -138.41015625 38.36328125 C-127.28228065 14.56271908 -107.38523324 -3.10080091 -82.91357422 -12.33642578 C-54.99125209 -22.01910906 -23.86371206 -17.18942848 0 0 Z " fill="#FDFDFD" transform="translate(1049,333)"/>
<path d="M0 0 C3.82170353 1.81224864 6.91825211 4.22322014 10.1875 6.875 C29.34794194 22.09874557 49.88358901 34.53175921 72 45 C73.15113281 45.55816406 74.30226563 46.11632812 75.48828125 46.69140625 C105.95338962 61.0174093 139.19108783 67.94788903 172.39331055 72.0559082 C173.12804344 72.14726295 173.86277634 72.23861771 174.61977386 72.33274078 C176.41312177 72.55565025 178.20655238 72.77789417 180 73 C180.07046421 95.87236941 180.12316971 118.74472061 180.15543652 141.61717701 C180.17082493 152.24018319 180.19175847 162.86312144 180.22631836 173.48608398 C180.25646912 182.75829374 180.27563309 192.03045424 180.28226548 201.30271167 C180.28613485 206.20027601 180.29505498 211.09769961 180.31719017 215.99521828 C180.42881196 241.69744355 180.52077132 267.45445481 174.1875 292.5625 C173.79848511 294.16484497 173.79848511 294.16484497 173.40161133 295.79956055 C164.33341974 332.250457 147.06301421 367.12092438 123 396 C122.5477002 396.54849609 122.09540039 397.09699219 121.62939453 397.66210938 C112.37286097 408.87378581 102.56837458 419.50985596 92.3125 429.8125 C91.6117334 430.51793945 90.9109668 431.22337891 90.18896484 431.95019531 C86.17797437 435.94891976 82.06463201 439.76734548 77.77514648 443.46557617 C75.59811908 445.34738297 73.48877024 447.29764495 71.375 449.25 C65.79800432 454.27607665 59.92824973 458.86830419 53.99072266 463.45507812 C51.88481927 465.08938725 49.79127483 466.73863336 47.69921875 468.390625 C38.99631111 475.24449716 30.17348548 481.84643168 21.0625 488.1484375 C18.3222117 490.0490868 15.64644113 492.00986331 13 494.0390625 C12.05012207 494.75594238 12.05012207 494.75594238 11.08105469 495.48730469 C9.89339489 496.38739246 8.71612613 497.30142369 7.55175781 498.23144531 C5.953125 499.4296875 5.953125 499.4296875 3 501 C-0.50997855 499.94814051 -3.29485065 498.27408798 -6.265625 496.1640625 C-7.06468262 495.60050049 -7.86374023 495.03693848 -8.68701172 494.45629883 C-9.53279785 493.85197021 -10.37858398 493.2476416 -11.25 492.625 C-12.57475342 491.68660278 -12.57475342 491.68660278 -13.92626953 490.72924805 C-15.7434583 489.44189611 -17.55937466 488.15274623 -19.37402344 486.86181641 C-21.77477826 485.15968213 -24.18498368 483.47252801 -26.6015625 481.79296875 C-35.65205292 475.49151631 -44.41923064 468.92658023 -53 462 C-53.91910156 461.26394531 -54.83820313 460.52789063 -55.78515625 459.76953125 C-73.89433517 445.12749999 -91.77580197 429.67236354 -107 412 C-107.52094238 411.40203613 -108.04188477 410.80407227 -108.57861328 410.18798828 C-122.98607885 393.55494511 -135.42960923 375.29660614 -146 356 C-146.34047363 355.38092773 -146.68094727 354.76185547 -147.03173828 354.12402344 C-157.27177616 335.23850346 -164.8685071 314.83484958 -170 294 C-170.19819336 293.19900879 -170.39638672 292.39801758 -170.60058594 291.57275391 C-175.0409274 273.19363396 -176.31187204 254.78762874 -176.22705078 235.93066406 C-176.22648452 234.12478136 -176.22680739 232.31889819 -176.22793579 230.51301575 C-176.22850195 225.68166764 -176.21686925 220.85042195 -176.20278788 216.01909733 C-176.19015548 210.94362491 -176.18910028 205.86814929 -176.18673706 200.79266357 C-176.18055862 191.21328821 -176.16419783 181.63395933 -176.14403808 172.05460429 C-176.12156487 161.1353705 -176.11065713 150.21613432 -176.10064721 139.29688311 C-176.07982773 116.86456312 -176.04472366 94.43228418 -176 72 C-175.33122833 71.94792389 -174.66245667 71.89584778 -173.97341919 71.8421936 C-170.88040298 71.5991421 -167.78787012 71.35037851 -164.6953125 71.1015625 C-163.64384033 71.0197876 -162.59236816 70.9380127 -161.5090332 70.85375977 C-100.36265791 65.88958694 -46.29551708 39.17653963 0 0 Z M-3.421875 15.4921875 C-4.10967041 16.02706787 -4.79746582 16.56194824 -5.50610352 17.11303711 C-6.61683228 17.98520874 -6.61683228 17.98520874 -7.75 18.875 C-9.31538338 20.0833575 -10.88180147 21.29037569 -12.44921875 22.49609375 C-13.22700684 23.09534668 -14.00479492 23.69459961 -14.80615234 24.31201172 C-55.66153133 55.7469205 -102.56046004 73.39189737 -153.37109375 80.1640625 C-154.7047566 80.34447792 -156.03837502 80.52522209 -157.37194824 80.70629883 C-160.58088033 81.14074334 -163.7902122 81.57193198 -167 82 C-167.07042553 104.01149405 -167.12315112 126.02296923 -167.15543652 148.03455353 C-167.17083298 158.25744925 -167.19178241 168.48027453 -167.22631836 178.703125 C-167.25644395 187.62481982 -167.27562729 196.54646356 -167.28226548 205.46820784 C-167.28613899 210.18179629 -167.29508686 214.89523877 -167.31719017 219.60877991 C-167.63052989 289.20514669 -148.06638882 348.37587813 -103 402 C-102.06800781 403.11375 -102.06800781 403.11375 -101.1171875 404.25 C-99.44459306 406.19995935 -97.73360703 408.10386731 -96 410 C-95.49855469 410.55042969 -94.99710937 411.10085938 -94.48046875 411.66796875 C-85.61652252 421.46642958 -85.61652252 421.46642958 -75.91015625 430.40625 C-73.60544445 432.32919972 -71.40309115 434.35010919 -69.1875 436.375 C-63.93819023 441.10576093 -58.50376055 445.56997052 -53 450 C-51.86686303 450.92538408 -50.73406551 451.85118393 -49.6015625 452.77734375 C-40.01114819 460.58132106 -30.08564101 467.85184178 -20 475 C-19.20577637 475.56380371 -18.41155273 476.12760742 -17.59326172 476.70849609 C-8.16006397 484.73908149 -8.16006397 484.73908149 2.4296875 488.78735352 C5.08790934 487.97307108 6.86223101 487.00236018 9.125 485.40234375 C9.90367432 484.85602295 10.68234863 484.30970215 11.48461914 483.74682617 C12.31469482 483.14974854 13.14477051 482.5526709 14 481.9375 C14.87068115 481.31915283 15.7413623 480.70080566 16.63842773 480.0637207 C30.44303415 470.1909543 44.01279505 459.93022529 57 449 C57.99515625 448.17757813 58.9903125 447.35515625 60.015625 446.5078125 C79.33231837 430.47008725 98.68261458 412.92718903 114 393 C114.91926038 391.88867562 115.84275412 390.7808449 116.76953125 389.67578125 C154.22635309 344.69958767 171.2565543 288.18044572 171.11352539 230.26416016 C171.11324256 228.63650006 171.11340311 227.00883983 171.1139679 225.38117981 C171.11425214 221.00816992 171.10841615 216.63518806 171.10139394 212.26218462 C171.09509789 207.67514727 171.09455169 203.08810912 171.09336853 198.50106812 C171.09027351 189.83524103 171.08208503 181.16942673 171.07201904 172.50360525 C171.06080078 162.62922596 171.05533312 152.75484602 171.05032361 142.88046193 C171.03990069 122.58696752 171.02233704 102.29348457 171 82 C169.74942417 81.83112967 169.74942417 81.83112967 168.47358418 81.65884781 C165.34198791 81.23482469 162.2106903 80.80867299 159.07957172 80.38113785 C157.73156248 80.19750627 156.38344166 80.01469163 155.03520298 79.83275223 C145.46357407 78.54035722 136.07155031 77.06199237 126.6875 74.75 C125.45443115 74.45262939 124.2213623 74.15525879 122.95092773 73.84887695 C79.95384469 63.19039044 38.32012276 43.05660213 4.1875 14.66015625 C0.75618318 12.05603188 -0.30402574 13.04432321 -3.421875 15.4921875 Z " fill="#EB2023" transform="translate(230,247)"/>
<path d="M0 0 C1.41165608 1.04138564 2.80822308 2.10359404 4.1875 3.1875 C4.85136719 3.66574219 5.51523437 4.14398438 6.19921875 4.63671875 C18.90360172 14.54563828 26.71776376 32.5137874 28.95605469 48.08691406 C31.19505595 68.40797611 28.26275273 88.26153507 15.8125 104.9375 C14.62482344 106.37152869 13.41640451 107.78864061 12.1875 109.1875 C11.58164062 109.88746094 10.97578125 110.58742188 10.3515625 111.30859375 C1.71453394 120.63305928 -11.0572907 126.84595558 -23.81640625 127.42578125 C-40.43554761 127.83219298 -53.1208265 123.61498212 -65.5 112.0625 C-81.02741599 95.6184387 -84.37169921 76.08925392 -84.08203125 54.28515625 C-83.52574298 36.50859475 -76.38663267 19.27252974 -63.6640625 6.74609375 C-46.37546775 -8.76627551 -20.18455546 -12.76074439 0 0 Z " fill="#000000" transform="translate(797.8125,364.8125)"/>
<path d="M0 0 C0.71542969 0.14002441 1.43085938 0.28004883 2.16796875 0.42431641 C12.87583824 2.58337803 22.90252695 5.90261214 33 10.0625 C34.03310303 10.48595703 35.06620605 10.90941406 36.13061523 11.34570312 C44.67229258 14.99311102 44.67229258 14.99311102 48 19 C48.42779419 21.74137505 48.64974528 24.1314901 48.6875 26.875 C48.83395209 31.65910161 49.09133057 36.28673907 50 41 C49.34 41.45375 48.68 41.9075 48 42.375 C47.34 42.91125 46.68 43.4475 46 44 C46 44.66 46 45.32 46 46 C46.928125 45.0409375 46.928125 45.0409375 47.875 44.0625 C50 42 50 42 52 41 C51.7834375 40.48953125 51.566875 39.9790625 51.34375 39.453125 C48.82964501 32.88851753 48.68134049 26.97510267 49 20 C64.73754881 24.81249681 77.99991409 38.15022504 89.875 49.125 C90.75828979 49.94121826 90.75828979 49.94121826 91.65942383 50.77392578 C94.10869077 53.07599683 96.12725474 55.19088211 98 58 C97.7275333 62.18917547 96.17826111 64.42192001 93.5 67.5625 C90.21571099 71.50721669 87.06265915 75.50817358 84 79.625 C82.8553125 81.16027344 82.8553125 81.16027344 81.6875 82.7265625 C81.130625 83.47679687 80.57375 84.22703125 80 85 C77.05354008 83.68268423 75.12163996 82.3003931 72.9375 79.9375 C68.31140738 75.18372329 63.19131292 71.11678502 58 67 C57.22148682 66.37424072 57.22148682 66.37424072 56.42724609 65.73583984 C28.90007395 43.64199318 -5.22206347 33.00325324 -40.45703125 36.50390625 C-55.15257695 38.17483576 -68.62804936 41.41005894 -81.86328125 48.1796875 C-84 49 -84 49 -87 48 C-88.2890625 46.50390625 -88.2890625 46.50390625 -89.625 44.5625 C-92.04810104 41.19541171 -94.6332493 38.1199454 -97.4375 35.0625 C-101.55539895 30.56072912 -105.33686712 25.8763248 -109 21 C-101.38274679 12.63960013 -90.00149009 9.16967385 -79.5 5.625 C-78.75919189 5.37435791 -78.01838379 5.12371582 -77.25512695 4.86547852 C-72.83605021 3.43138753 -68.61738764 2.52249386 -64 2 C-61.5057337 7.63921077 -59.85533466 12.00543425 -59.9375 18.25 C-59.94652344 19.14203125 -59.95554688 20.0340625 -59.96484375 20.953125 C-59.97644531 21.62859375 -59.98804688 22.3040625 -60 23 C-59.3709375 22.96519531 -58.741875 22.93039062 -58.09375 22.89453125 C-51.94071219 22.69993216 -47.62490422 23.50004257 -42 26 C-44.27359902 23.40678961 -46.20412656 22.43027665 -49.4375 21.3125 C-53.76287305 19.44872137 -55.56203843 17.63463469 -57.359375 13.3046875 C-58.48510013 9.2548227 -58.82836029 5.18800903 -59 1 C-41.16467129 -4.81586806 -18.18947837 -3.70453816 0 0 Z " fill="#EC1F23" transform="translate(257,378)"/>
<path d="M0 0 C7.486875 -0.0825 14.97375 -0.165 22.6875 -0.25 C25.02287842 -0.28641602 27.35825684 -0.32283203 29.7644043 -0.36035156 C54.73793991 -0.59038271 54.73793991 -0.59038271 65.0625 7.8125 C72.46210248 15.13078816 75.27141875 23.27758395 75.375 33.6875 C75.28972151 45.02560339 72.56359961 53.58905545 64.51171875 61.8671875 C58.29497816 67.14609941 51.29000914 70.13497371 43.13964844 70.11352539 C42.16560059 70.11340454 41.19155273 70.11328369 40.18798828 70.11315918 C39.1720459 70.10804321 38.15610352 70.10292725 37.109375 70.09765625 C36.16980957 70.09664917 35.23024414 70.09564209 34.26220703 70.09460449 C30.75812558 70.08937916 27.25406154 70.07541788 23.75 70.0625 C15.9125 70.041875 8.075 70.02125 0 70 C0 46.9 0 23.8 0 0 Z " fill="#000000" transform="translate(526,360)"/>
<path d="M0 0 C-0.74250597 4.08378283 -1.82923301 8.01939223 -3 12 C-2.76925781 11.28972656 -2.53851563 10.57945312 -2.30078125 9.84765625 C-1.97464844 8.92855469 -1.64851563 8.00945312 -1.3125 7.0625 C-0.99925781 6.14597656 -0.68601562 5.22945313 -0.36328125 4.28515625 C1 2 1 2 3.3046875 1.0625 C20.15298844 0.67181476 40.45147548 19.53625181 52.00976562 30.56787109 C52.64591797 31.18484863 53.28207031 31.80182617 53.9375 32.4375 C54.55947266 33.02869629 55.18144531 33.61989258 55.82226562 34.22900391 C57.52734375 35.93359375 57.52734375 35.93359375 60 39 C59.70620266 42.18720816 58.39360327 44.07657539 56.3828125 46.49609375 C55.85816406 47.13740234 55.33351563 47.77871094 54.79296875 48.43945312 C54.24253906 49.09880859 53.69210937 49.75816406 53.125 50.4375 C48.16071524 56.43112004 48.16071524 56.43112004 44 63 C39.90150678 62.48237023 38.02890496 61.46057383 35.125 58.5625 C22.3456063 46.75637138 6.11206891 37.52546586 -11 34 C-11.85078125 33.814375 -12.7015625 33.62875 -13.578125 33.4375 C-18.6154682 32.79345612 -23.61469371 32.85622342 -28.6875 32.875 C-29.71294922 32.87113281 -30.73839844 32.86726563 -31.79492188 32.86328125 C-36.94148344 32.86978354 -41.87708256 33.08683395 -46.98046875 33.76953125 C-51.62755571 34.22784199 -51.62755571 34.22784199 -54.7265625 32.33203125 C-55.66628906 31.08486328 -55.66628906 31.08486328 -56.625 29.8125 C-57.34171875 28.89855469 -58.0584375 27.98460937 -58.796875 27.04296875 C-59.52390625 26.03878906 -60.2509375 25.03460938 -61 24 C-61.81461443 22.93122849 -62.6323749 21.86484821 -63.453125 20.80078125 C-65.67150943 17.89183522 -67.84271001 14.95436098 -70 12 C-70.99786994 10.66507177 -71.99697458 9.33105889 -73 8 C-72.41796875 6.16015625 -72.41796875 6.16015625 -71 4 C-66.21171554 1.76123919 -61.08371608 0.41905168 -56 -1 C-54.87335938 -1.32484375 -53.74671875 -1.6496875 -52.5859375 -1.984375 C-36.99806235 -5.78279975 -14.77278068 -7.38639034 0 0 Z " fill="#EC1F23" transform="translate(259,442)"/>
<path d="M0 0 C6.44689228 3.95604754 11.15563461 11.58160822 13.52734375 18.7109375 C15.61242953 28.80895622 13.95798386 37.52122527 8.64453125 46.21875 C4.02493436 52.85709834 -1.19240677 56.81310656 -9 59 C-16.82451579 59.83487389 -23.47665187 59.62250497 -30 55 C-30.92232422 54.36384766 -30.92232422 54.36384766 -31.86328125 53.71484375 C-37.5294116 49.35908187 -41.73962789 43.1129911 -43 36 C-43.91189089 25.10348101 -43.66968374 16.2064438 -37 7 C-26.92418592 -4.84123449 -13.48003754 -6.81121615 0 0 Z " fill="#EC1F23" transform="translate(244,567)"/>
<path d="M0 0 C7.32285424 5.8922304 13.22517591 13.63782966 19 21 C19.45004395 21.56783203 19.90008789 22.13566406 20.36376953 22.72070312 C21.76985166 24.49629842 23.16764947 26.27807208 24.5625 28.0625 C25.00464844 28.62300049 25.44679688 29.18350098 25.90234375 29.76098633 C29 33.76808584 29 33.76808584 29 36 C27.6078125 35.7525 27.6078125 35.7525 26.1875 35.5 C13.62703331 33.81013802 2.59946999 35.74975991 -7.88671875 43.20703125 C-11.67945591 46.42489882 -14.86285809 50.15336824 -18 54 C-22.22694365 49.8766942 -25.94068045 45.51862852 -29.63671875 40.921875 C-31.1961353 38.99386908 -32.78183762 37.08679325 -34.39453125 35.203125 C-35.13058594 34.33171875 -35.86664063 33.4603125 -36.625 32.5625 C-37.29789063 31.78003906 -37.97078125 30.99757813 -38.6640625 30.19140625 C-40 28 -40 28 -39.73876953 26.04760742 C-38.49376086 22.59688445 -35.80955426 20.28161714 -33.25 17.75 C-32.67161377 17.17515869 -32.09322754 16.60031738 -31.49731445 16.00805664 C-25.88007193 10.60040705 -19.86765807 6.71126423 -13 3 C-12.20207031 2.5359375 -11.40414062 2.071875 -10.58203125 1.59375 C-6.58287729 -0.62716852 -4.35311856 -1.45763515 0 0 Z " fill="#ED1F23" transform="translate(212,504)"/>
<path d="M0 0 C9.0629515 4.21604195 15.5828042 17.0924732 21.30078125 25.0703125 C19.81200216 28.87589949 17.77892229 30.38280627 14.42578125 32.6328125 C4.81138263 39.39943381 -3.50950553 47.66381275 -11.69921875 56.0703125 C-14.94976936 54.69563222 -16.55311687 53.30285556 -18.5390625 50.40234375 C-19.04501953 49.67337891 -19.55097656 48.94441406 -20.07226562 48.19335938 C-20.58853516 47.43087891 -21.10480469 46.66839844 -21.63671875 45.8828125 C-22.66654574 44.38923953 -23.6964924 42.89574907 -24.7265625 41.40234375 C-25.2201123 40.67354004 -25.71366211 39.94473633 -26.22216797 39.19384766 C-27.18889335 37.80400016 -28.18990236 36.43723812 -29.22705078 35.09912109 C-30.640625 33.26953125 -30.640625 33.26953125 -32.69921875 30.0703125 C-32.23341129 26.6710271 -31.09749087 25.10647655 -28.63671875 22.7578125 C-27.99734375 22.14679688 -27.35796875 21.53578125 -26.69921875 20.90625 C-24.2136088 18.62453774 -21.71179169 16.37331589 -19.14453125 14.18359375 C-17.14962711 12.45956318 -15.19898071 10.70499256 -13.25390625 8.92578125 C-12.00678769 7.80698252 -10.7593901 6.68849474 -9.51171875 5.5703125 C-8.62021118 4.74043823 -8.62021118 4.74043823 -7.71069336 3.89379883 C-3.41310082 0.08890856 -3.41310082 0.08890856 0 0 Z " fill="#EC1F23" transform="translate(136.69921875,406.9296875)"/>
<path d="M0 0 C5.93994269 3.54111968 9.65685744 8.32201026 11.78125 14.91015625 C13.61953191 22.86072553 11.69505192 30.92062899 7.5 37.8125 C2.42942322 42.60137807 -1.18199336 44.21413444 -8.125 44.5625 C-14.69943403 44.3355345 -19.13045581 42.66679578 -23.75 37.9375 C-27.9426767 31.84118458 -29.45217762 25.29736176 -28.75 17.9375 C-27.15912486 10.09098023 -23.53032737 4.60091246 -17 0 C-11.14750042 -1.91331717 -5.89176308 -1.66933287 0 0 Z " fill="#F8F8F8" transform="translate(555.75,644.0625)"/>
<path d="M0 0 C5.54344907 3.15257218 9.25838582 7.98119216 11.21875 14.05078125 C12.52790569 21.13331351 12.53101367 28.18891394 8.80859375 34.484375 C5.50776926 39.10767966 1.9864345 42.27213416 -3.390625 44.1640625 C-9.98797079 45.08485769 -15.18960544 44.67894005 -20.66796875 40.73046875 C-25.19442804 36.61457266 -28.17973005 32.0785616 -28.62890625 25.87109375 C-28.89906693 11.69476743 -28.89906693 11.69476743 -24.390625 6.1640625 C-17.67749362 -0.76266852 -9.49799696 -3.32119502 0 0 Z " fill="#FAFAF9" transform="translate(891.390625,578.8359375)"/>
<path d="M0 0 C5.23724692 2.96387807 8.8638854 7.84165621 10.75 13.5 C11.95248057 30.11788721 11.95248057 30.11788721 6.75 36.5 C1.87817482 41.5268378 -1.82544664 43.6382351 -8.9375 43.875 C-14.94966059 43.80238936 -18.89305793 42.71574487 -23.25 38.5 C-28.93016682 31.20098564 -30.0358158 24.64507368 -29.25 15.5 C-27.51391644 8.30133506 -23.26453886 3.64966131 -17.25 -0.5 C-11.59165621 -2.3861146 -5.51345061 -2.41147069 0 0 Z " fill="#F9F9F9" transform="translate(999.25,644.5)"/>
<path d="M0 0 C19.50369255 -1.18871264 37.34644251 7.9560499 51.828125 20.4375 C54.24550175 22.59828369 56.6356216 24.78150878 59 27 C57.39329889 32.0995296 54.28068433 35.88766159 51.0625 40.0625 C50.52431641 40.76955078 49.98613281 41.47660156 49.43164062 42.20507812 C48.4034646 43.55527229 47.37315094 44.90384232 46.34033203 46.25048828 C44.87984263 48.15683929 43.43529035 50.07461051 42 52 C38.75329542 51.74268542 37.83809458 50.83325016 35.51953125 48.4453125 C34.60750341 47.34650808 33.70569496 46.23916726 32.8125 45.125 C32.32982666 44.53783203 31.84715332 43.95066406 31.34985352 43.34570312 C30.36170316 42.14163386 29.37755901 40.93426558 28.39746094 39.72363281 C27.15365584 38.18951961 25.89429645 36.66804688 24.6328125 35.1484375 C18.90483892 28.23817756 13.41429524 21.15670203 8 14 C7.20464844 12.95585937 6.40929687 11.91171875 5.58984375 10.8359375 C4.85894531 9.85882813 4.12804687 8.88171875 3.375 7.875 C2.72273437 7.00617188 2.07046875 6.13734375 1.3984375 5.2421875 C0 3 0 3 0 0 Z " fill="#EC1F23" transform="translate(228,499)"/>
<path d="M0 0 C3.16372162 1.73414211 4.83637392 4.59863255 6.80078125 7.52734375 C7.45119385 8.46827881 7.45119385 8.46827881 8.11474609 9.42822266 C8.99422805 10.701832 9.86926295 11.9785241 10.73974609 13.25830078 C12.50388529 15.84621088 14.30958706 18.40440617 16.11328125 20.96484375 C17.07233557 22.33934096 18.03098261 23.71412318 18.98828125 25.08984375 C15.4980187 29.0072999 11.43183531 31.4676965 6.98828125 34.15234375 C0.82129319 37.87385601 0.82129319 37.87385601 -5.01171875 42.08984375 C-5.67171875 40.43984375 -6.33171875 38.78984375 -7.01171875 37.08984375 C-13.77279021 35.96073121 -17.69008676 36.10794187 -24.01171875 39.08984375 C-27.63671875 39.71484375 -27.63671875 39.71484375 -31.01171875 39.08984375 C-33.34464322 37.08296655 -35.06105471 35.03291746 -36.01171875 32.08984375 C-34.95537455 27.02961429 -31.26446583 23.88620342 -27.69921875 20.40234375 C-27.08054932 19.79092529 -26.46187988 19.17950684 -25.82446289 18.54956055 C-7.04058864 0.31443406 -7.04058864 0.31443406 0 0 Z " fill="#EC1F23" transform="translate(174.01171875,454.91015625)"/>
<path d="M0 0 C21 0 21 0 27 3 C30.67025187 6.76683745 31.31056958 9.90432172 31.5 15 C31.32274878 20.28471225 30.63572383 23.15652052 27 27 C26.01 27.33 25.02 27.66 24 28 C24.5775 28.98742187 25.155 29.97484375 25.75 30.9921875 C26.500226 32.28632735 27.25021368 33.58060537 28 34.875 C28.3815625 35.52597656 28.763125 36.17695312 29.15625 36.84765625 C32 41.7734375 32 41.7734375 32 44 C26.93694617 44.78564628 26.93694617 44.78564628 24 44 C20.27526917 40.21173432 18.27853838 36.11415353 17 31 C14.03 31 11.06 31 8 31 C8 35.29 8 39.58 8 44 C5.36 44 2.72 44 0 44 C0 29.48 0 14.96 0 0 Z " fill="#FBFBFB" transform="translate(484,579)"/>
<path d="M0 0 C2.31 0 4.62 0 7 0 C8.60520934 3.04111749 10.20897836 6.08299233 11.8125 9.125 C12.26431641 9.9809375 12.71613281 10.836875 13.18164062 11.71875 C15.50249765 16.12329618 17.79692907 20.53530477 20 25 C21.60520934 21.95888251 23.20897836 18.91700767 24.8125 15.875 C25.26431641 15.0190625 25.71613281 14.163125 26.18164062 13.28125 C28.50249765 8.87670382 30.79692907 4.46469523 33 0 C35.64 0 38.28 0 41 0 C41 14.52 41 29.04 41 44 C38.36 44 35.72 44 33 44 C32.67 36.08 32.34 28.16 32 20 C29.03 25.94 26.06 31.88 23 38 C21.35 38 19.7 38 18 38 C15.03 32.39 12.06 26.78 9 21 C8.67 28.59 8.34 36.18 8 44 C5.36 44 2.72 44 0 44 C0 29.48 0 14.96 0 0 Z " fill="#F9F9F9" transform="translate(581,644)"/>
<path d="M0 0 C2.31 0 4.62 0 7 0 C7 14.85 7 29.7 7 45 C4.36 45 1.72 45 -1 45 C-1.33 37.08 -1.66 29.16 -2 21 C-4.97 26.94 -7.94 32.88 -11 39 C-12.65 39 -14.3 39 -16 39 C-18.97 33.06 -21.94 27.12 -25 21 C-25.33 28.92 -25.66 36.84 -26 45 C-28.64 45 -31.28 45 -34 45 C-34 30.48 -34 15.96 -34 1 C-31.69 1 -29.38 1 -27 1 C-25.39479066 4.04111749 -23.79102164 7.08299233 -22.1875 10.125 C-21.73568359 10.9809375 -21.28386719 11.836875 -20.81835938 12.71875 C-18.49750235 17.12329618 -16.20307093 21.53530477 -14 26 C-11.73268632 23.15455831 -10.08880415 20.34604887 -8.5546875 17.05078125 C-8.11769531 16.12072266 -7.68070313 15.19066406 -7.23046875 14.23242188 C-6.78316406 13.26884766 -6.33585938 12.30527344 -5.875 11.3125 C-4.97841369 9.39106219 -4.08007139 7.47044245 -3.1796875 5.55078125 C-2.78507324 4.70169189 -2.39045898 3.85260254 -1.98388672 2.9777832 C-1 1 -1 1 0 0 Z " fill="#FBFBFB" transform="translate(672,643)"/>
<path d="M0 0 C8 0 8 0 10.12988281 1.74072266 C10.64905273 2.5404248 11.16822266 3.34012695 11.703125 4.1640625 C12.2909375 5.03933594 12.87875 5.91460938 13.484375 6.81640625 C14.06703125 7.74324219 14.6496875 8.67007813 15.25 9.625 C16.1471875 10.98044922 16.1471875 10.98044922 17.0625 12.36328125 C18.18323852 14.0617456 19.29301039 15.7675382 20.38769531 17.48291016 C22.22157023 20.34590991 24.11403036 23.17104554 26 26 C26.33 17.42 26.66 8.84 27 0 C29.64 0 32.28 0 35 0 C35 14.52 35 29.04 35 44 C28 44 28 44 26.32250977 42.81347656 C25.94924561 42.26143555 25.57598145 41.70939453 25.19140625 41.140625 C24.5413562 40.21648804 24.5413562 40.21648804 23.87817383 39.27368164 C23.22691528 38.27195923 23.22691528 38.27195923 22.5625 37.25 C21.865802 36.23957642 21.865802 36.23957642 21.1550293 35.20874023 C19.74628146 33.1540843 18.37150212 31.07964709 17 29 C16.17343369 27.77628947 15.34539922 26.55356883 14.515625 25.33203125 C12.65437367 22.56985507 10.82367601 19.78712748 9 17 C8.67 25.91 8.34 34.82 8 44 C5.36 44 2.72 44 0 44 C0 29.48 0 14.96 0 0 Z " fill="#F4F4F3" transform="translate(1062,579)"/>
<path d="M0 0 C2.64 0 5.28 0 8 0 C8 14.85 8 29.7 8 45 C1 45 1 45 -1.23168945 42.9362793 C-1.85261475 41.99179932 -2.47354004 41.04731934 -3.11328125 40.07421875 C-3.80357422 39.05005859 -4.49386719 38.02589844 -5.20507812 36.97070312 C-5.90052734 35.88724609 -6.59597656 34.80378906 -7.3125 33.6875 C-8.02728516 32.61564453 -8.74207031 31.54378906 -9.47851562 30.43945312 C-11.340862 27.6397901 -13.17481904 24.82395507 -15 22 C-15.66 21.01 -16.32 20.02 -17 19 C-17.33 27.58 -17.66 36.16 -18 45 C-20.64 45 -23.28 45 -26 45 C-26 30.48 -26 15.96 -26 1 C-19 1 -19 1 -17.30664062 2.21826172 C-16.92701172 2.78303223 -16.54738281 3.34780273 -16.15625 3.9296875 C-15.71410156 4.56132813 -15.27195312 5.19296875 -14.81640625 5.84375 C-14.38199219 6.5140625 -13.94757812 7.184375 -13.5 7.875 C-13.06558594 8.50664063 -12.63117187 9.13828125 -12.18359375 9.7890625 C-10.77153356 11.84745927 -9.38638856 13.92422592 -8 16 C-5.69 19.3 -3.38 22.6 -1 26 C-0.67 17.42 -0.34 8.84 0 0 Z " fill="#FAFAFA" transform="translate(772,578)"/>
<path d="M0 0 C8 0 8 0 10.25341797 1.97192383 C10.82721191 2.87450928 11.40100586 3.77709473 11.9921875 4.70703125 C12.63414063 5.68607422 13.27609375 6.66511719 13.9375 7.67382812 C14.576875 8.70958984 15.21625 9.74535156 15.875 10.8125 C16.86886719 12.34874023 16.86886719 12.34874023 17.8828125 13.91601562 C19.6123976 16.59652099 21.30767965 19.29592383 23 22 C23.66 22.99 24.32 23.98 25 25 C25.33 16.75 25.66 8.5 26 0 C28.64 0 31.28 0 34 0 C34 14.52 34 29.04 34 44 C27 44 27 44 24.87597656 42.04394531 C24.30331055 41.14772461 23.73064453 40.25150391 23.140625 39.328125 C22.49996094 38.35359375 21.85929687 37.3790625 21.19921875 36.375 C20.55597656 35.34375 19.91273437 34.3125 19.25 33.25 C17.94285257 31.23428146 16.6355662 29.21865301 15.328125 27.203125 C14.7599707 26.30239258 14.19181641 25.40166016 13.60644531 24.47363281 C12.16398003 22.25249934 10.58905331 20.11873774 9 18 C8.67 26.58 8.34 35.16 8 44 C5.36 44 2.72 44 0 44 C0 29.48 0 14.96 0 0 Z " fill="#FAFAFA" transform="translate(1024,644)"/>
<path d="M0 0 C8 0 8 0 10.36108398 2.07958984 C10.98313721 3.03043457 11.60519043 3.9812793 12.24609375 4.9609375 C13.2834668 6.50394531 13.2834668 6.50394531 14.34179688 8.078125 C15.03337891 9.16609375 15.72496094 10.2540625 16.4375 11.375 C17.15615234 12.45523438 17.87480469 13.53546875 18.61523438 14.6484375 C23.55853342 22.11706684 23.55853342 22.11706684 25 25 C25.33 16.75 25.66 8.5 26 0 C28.64 0 31.28 0 34 0 C34 14.52 34 29.04 34 44 C28 44 28 44 25.796875 41.90234375 C25.12140625 40.92394531 24.4459375 39.94554687 23.75 38.9375 C22.99332031 37.85855469 22.23664062 36.77960937 21.45703125 35.66796875 C20.63585872 34.44676359 19.81696537 33.22402367 19 32 C18.06649855 30.62103126 17.13290234 29.24212667 16.19921875 27.86328125 C13.76731448 24.262094 11.38774901 20.63206892 9 17 C8.67 25.91 8.34 34.82 8 44 C5.36 44 2.72 44 0 44 C0 29.48 0 14.96 0 0 Z " fill="#F9F9F9" transform="translate(742,644)"/>
<path d="M0 0 C2.97 0 5.94 0 9 0 C9.01458252 0.94319092 9.02916504 1.88638184 9.04418945 2.8581543 C9.10539606 6.37158661 9.17957508 9.88425446 9.26245117 13.3972168 C9.29561916 14.91501621 9.32367632 16.43293656 9.34643555 17.95092773 C9.38013278 20.13838019 9.43245204 22.32473264 9.48828125 24.51171875 C9.51446533 25.82615967 9.54064941 27.14060059 9.56762695 28.49487305 C10.01858207 32.1506396 10.76038746 34.10573149 13 37 C16.04941521 37.88941277 18.90149418 37.63010659 22 37 C24.67955562 34.65538883 25.31676362 32.40706234 26 29 C26.14774861 26.75759423 26.24744368 24.51183457 26.31640625 22.265625 C26.35830078 20.97011719 26.40019531 19.67460938 26.44335938 18.33984375 C26.48316671 16.97656524 26.52287906 15.61328394 26.5625 14.25 C26.60572274 12.87108125 26.64933821 11.49217474 26.69335938 10.11328125 C26.79943958 6.7422881 26.9014985 3.37122174 27 0 C29.97 0 32.94 0 36 0 C36.0498487 4.12593843 36.08592957 8.25175752 36.10986328 12.37792969 C36.11985248 13.77835142 36.13344854 15.17875268 36.15087891 16.57910156 C36.39360516 36.59687824 36.39360516 36.59687824 30 44 C25.17193303 47.59869806 20.35983378 48.66296828 14.39453125 48.37890625 C9.8869989 47.66564257 6.53489817 46.05900974 3.71875 42.28125 C0.493808 36.8449192 -0.14136764 32.43693165 -0.09765625 26.26953125 C-0.0962413 25.51911057 -0.09482635 24.76868988 -0.09336853 23.99552917 C-0.0877756 21.6011454 -0.07522444 19.20685547 -0.0625 16.8125 C-0.05748408 15.18815239 -0.05292134 13.56380332 -0.04882812 11.93945312 C-0.03780848 7.95959931 -0.02054873 3.97981556 0 0 Z " fill="#F6F6F6" transform="translate(595,725)"/>
<path d="M0 0 C1.23556641 0.01740234 1.23556641 0.01740234 2.49609375 0.03515625 C3.32238281 0.04417969 4.14867187 0.05320312 5 0.0625 C5.63808594 0.07410156 6.27617188 0.08570313 6.93359375 0.09765625 C9.07392571 5.89856306 11.21006508 11.70098943 13.34228516 17.50488281 C14.06866447 19.48024456 14.79620008 21.4551815 15.52490234 23.4296875 C16.5704078 26.26322064 17.61178392 29.09824131 18.65234375 31.93359375 C18.98045044 32.82009613 19.30855713 33.70659851 19.64660645 34.6199646 C19.94691772 35.44066437 20.247229 36.26136414 20.55664062 37.10693359 C20.82311401 37.83085297 21.0895874 38.55477234 21.36413574 39.30062866 C21.93359375 41.09765625 21.93359375 41.09765625 21.93359375 43.09765625 C18.96359375 43.09765625 15.99359375 43.09765625 12.93359375 43.09765625 C12.27359375 40.12765625 11.61359375 37.15765625 10.93359375 34.09765625 C4.99359375 34.09765625 -0.94640625 34.09765625 -7.06640625 34.09765625 C-7.37578125 35.56203125 -7.68515625 37.02640625 -8.00390625 38.53515625 C-8.94140625 42.97265625 -8.94140625 42.97265625 -10.06640625 44.09765625 C-12.73699476 44.23880786 -15.39072863 44.14012732 -18.06640625 44.09765625 C-15.72813291 35.6780596 -12.76514973 27.50034475 -9.76806641 19.29907227 C-8.9322746 17.01014803 -8.10261486 14.71906193 -7.2734375 12.42773438 C-6.74385063 10.9725248 -6.21391581 9.51744181 -5.68359375 8.0625 C-5.43568085 7.37719711 -5.18776794 6.69189423 -4.93234253 5.98582458 C-2.78484758 0.13160905 -2.78484758 0.13160905 0 0 Z " fill="#F9F9F9" transform="translate(876.06640625,643.90234375)"/>
<path d="M0 0 C1.78515625 1.0703125 1.78515625 1.0703125 2.78515625 3.0703125 C1.8493663 5.43013063 0.85167817 7.76662514 -0.21484375 10.0703125 C-1.16359375 9.5753125 -2.11234375 9.0803125 -3.08984375 8.5703125 C-7.73071808 6.54052558 -12.23874947 6.79998142 -17.21484375 7.0703125 C-17.21484375 9.0503125 -17.21484375 11.0303125 -17.21484375 13.0703125 C-15.86095842 13.67510935 -14.50671743 14.27911004 -13.15234375 14.8828125 C-12.33121094 15.25277344 -11.51007812 15.62273438 -10.6640625 16.00390625 C-8.62782478 16.89049779 -6.54997552 17.68076418 -4.46484375 18.4453125 C-0.69049913 20.33248481 1.98574475 22.23156798 3.78515625 26.0703125 C4.559481 30.67201386 4.38261225 34.62384008 2.59765625 38.9453125 C-0.87485676 43.01653465 -4.13633709 45.71175099 -9.5625 46.34375 C-16.98353264 46.62137136 -21.89947098 44.90611375 -28.21484375 41.0703125 C-27.22484375 38.1003125 -26.23484375 35.1303125 -25.21484375 32.0703125 C-24.08046875 32.7303125 -22.94609375 33.3903125 -21.77734375 34.0703125 C-17.29786593 36.31802201 -13.16940242 36.91073074 -8.21484375 36.0703125 C-7.22484375 35.4103125 -6.23484375 34.7503125 -5.21484375 34.0703125 C-5.08043597 31.64111385 -5.08043597 31.64111385 -6.21484375 29.0703125 C-9.40443984 27.61001154 -9.40443984 27.61001154 -11.81640625 26.875 C-17.12385082 25.09432641 -22.45950865 22.92890261 -26.33984375 18.8203125 C-28.05268007 13.43711262 -28.05500752 8.92567415 -25.71484375 3.7578125 C-18.13789214 -4.38741048 -9.63250081 -4.46102096 0 0 Z " fill="#F9F9F9" transform="translate(672.21484375,726.9296875)"/>
<path d="M0 0 C2.64 0 5.28 0 8 0 C8.01458252 0.85231201 8.02916504 1.70462402 8.04418945 2.58276367 C8.10543285 5.76071175 8.17962029 8.93802546 8.26245117 12.11547852 C8.29559806 13.48775958 8.32366171 14.86017362 8.34643555 16.23266602 C8.38016766 18.21137766 8.4340149 20.18971376 8.48828125 22.16796875 C8.51446533 23.35672607 8.54064941 24.5454834 8.56762695 25.77026367 C9.03883835 29.29011437 9.80414214 31.22371953 12 34 C15.9245222 34.99896929 19.14896842 35.38637137 23 34 C23.91983592 30.0293204 24.19088698 26.23837938 24.31640625 22.16796875 C24.35830078 20.87568359 24.40019531 19.58339844 24.44335938 18.25195312 C24.48316352 16.89713808 24.52287591 15.54232033 24.5625 14.1875 C24.60573723 12.81313895 24.64935312 11.43878976 24.69335938 10.06445312 C24.7992979 6.70973331 24.90137189 3.3549414 25 0 C27.64 0 30.28 0 33 0 C33.09961729 4.41074704 33.17181669 8.82088095 33.21972656 13.23242188 C33.23971919 14.7299339 33.26692299 16.22736908 33.30175781 17.72460938 C33.65530112 33.32210844 33.65530112 33.32210844 29 40 C23.76184149 44.16914657 19.67674578 45.54727424 13 45 C8.38616813 43.57108938 5.06206579 41.71122498 2.5625 37.5 C0.28401111 32.39618489 -0.12144391 28.66076338 -0.09765625 23.046875 C-0.0962413 22.38665344 -0.09482635 21.72643188 -0.09336853 21.04620361 C-0.08779245 18.94742206 -0.07524447 16.84874905 -0.0625 14.75 C-0.0574819 13.32291821 -0.05291954 11.89583475 -0.04882812 10.46875 C-0.03783088 6.97913168 -0.0205828 3.48957644 0 0 Z " fill="#FBFBFB" transform="translate(694,644)"/>
<path d="M0 0 C9.24 0 18.48 0 28 0 C28 2.31 28 4.62 28 7 C21.4 7 14.8 7 8 7 C8 10.63 8 14.26 8 18 C13.61 18 19.22 18 25 18 C25 20.31 25 22.62 25 25 C19.39 25 13.78 25 8 25 C8 28.63 8 32.26 8 36 C14.93 36 21.86 36 29 36 C29 38.64 29 41.28 29 44 C19.43 44 9.86 44 0 44 C0 29.48 0 14.96 0 0 Z " fill="#FCFCFC" transform="translate(1113,579)"/>
<path d="M0 0 C9.24 0 18.48 0 28 0 C28 2.31 28 4.62 28 7 C21.4 7 14.8 7 8 7 C8 10.63 8 14.26 8 18 C13.61 18 19.22 18 25 18 C25 20.31 25 22.62 25 25 C19.39 25 13.78 25 8 25 C8 28.63 8 32.26 8 36 C14.93 36 21.86 36 29 36 C29 38.64 29 41.28 29 44 C19.43 44 9.86 44 0 44 C0 29.48 0 14.96 0 0 Z " fill="#F9F9F9" transform="translate(703,579)"/>
<path d="M0 0 C9.24 0 18.48 0 28 0 C28 2.31 28 4.62 28 7 C21.4 7 14.8 7 8 7 C8 10.63 8 14.26 8 18 C13.61 18 19.22 18 25 18 C25 20.31 25 22.62 25 25 C19.39 25 13.78 25 8 25 C8 28.63 8 32.26 8 36 C14.93 36 21.86 36 29 36 C29 38.64 29 41.28 29 44 C19.43 44 9.86 44 0 44 C0 29.48 0 14.96 0 0 Z " fill="#F8F8F8" transform="translate(530,579)"/>
<path d="M0 0 C1.093125 0.495 2.18625 0.99 3.3125 1.5 C2.78981534 4.26276177 2.20380413 6.8260876 1.3125 9.5 C0.508125 9.17 -0.29625 8.84 -1.125 8.5 C-5.72223859 7.20954706 -11.26220667 6.28735334 -15.6875 8.5 C-15.6875 10.15 -15.6875 11.8 -15.6875 13.5 C-12.04051235 15.41946718 -8.43810039 16.96464838 -4.5625 18.375 C-0.37875111 20.05732071 2.25475043 21.29096679 4.3125 25.5 C4.98409042 29.83768401 4.81882455 33.33545354 3.0625 37.375 C-0.08422646 41.19602499 -3.05180654 43.23643065 -8.0703125 43.73828125 C-14.88977329 43.92285355 -19.71789459 42.80170768 -25.6875 39.5 C-25.0275 36.86 -24.3675 34.22 -23.6875 31.5 C-22.924375 31.809375 -22.16125 32.11875 -21.375 32.4375 C-17.55029145 33.94959408 -14.65957985 34.63694484 -10.5625 34.625 C-9.67304687 34.62757813 -8.78359375 34.63015625 -7.8671875 34.6328125 C-5.70958912 34.74301985 -5.70958912 34.74301985 -4.6875 33.5 C-4.64686168 31.83382885 -4.644779 30.16611905 -4.6875 28.5 C-5.656875 28.0875 -6.62625 27.675 -7.625 27.25 C-8.57632813 26.83621094 -8.57632813 26.83621094 -9.546875 26.4140625 C-11.02699195 25.78204176 -12.51754327 25.17411053 -14.015625 24.5859375 C-18.70521545 22.67593874 -22.28374678 21.20299543 -24.6875 16.5 C-25.52003661 11.76768663 -25.15591889 8.43683779 -23 4.125 C-16.77850581 -2.93723665 -8.61747272 -3.22005209 0 0 Z " fill="#F9F9F9" transform="translate(595.6875,579.5)"/>
<path d="M0 0 C2.23860964 1.238575 3.66993191 2.29493191 5.5 4.125 C5.24739753 7.91403708 3.22150557 9.66686593 0.5 12.125 C-0.139375 11.465 -0.77875 10.805 -1.4375 10.125 C-5.51482767 7.4622554 -8.74721133 7.24676731 -13.5 8.125 C-16.37029869 9.91893668 -17.99131638 11.10763276 -19.5 14.125 C-20.49966542 22.90748526 -20.49966542 22.90748526 -17.5 30.875 C-13.83662241 33.62253319 -11.07974148 34.70527913 -6.5 34.125 C-4.12767626 33.03664006 -2.53986302 31.80788699 -0.5 30.125 C1.96800047 31.27673355 3.54783565 32.17283565 5.5 34.125 C5.2834173 36.64844026 4.83461191 37.79917056 3.01171875 39.57421875 C2.40972656 39.98285156 1.80773437 40.39148438 1.1875 40.8125 C0.59324219 41.22886719 -0.00101562 41.64523437 -0.61328125 42.07421875 C-4.74465731 44.37513005 -8.83586654 44.51367779 -13.5 44.125 C-20.16241358 42.10179123 -24.08151388 38.07361566 -27.5 32.125 C-30.07141404 25.81334737 -30.77840935 19.00017835 -28.625 12.47265625 C-26.02773234 6.79113325 -22.79074975 2.52261418 -17.5 -0.875 C-11.59924362 -2.84191879 -5.61882841 -2.76318984 0 0 Z " fill="#F7F7F7" transform="translate(511.5,644.875)"/>
<path d="M0 0 C2.63857404 1.39689214 4.90817521 2.77286718 7.1875 4.6875 C5.71057692 9.36442308 5.71057692 9.36442308 3.0625 11 C2.44375 11.226875 1.825 11.45375 1.1875 11.6875 C0.713125 11.1925 0.23875 10.6975 -0.25 10.1875 C-4.03405914 7.97244099 -7.52801811 7.9772383 -11.8125 8.6875 C-14.68279869 10.48143668 -16.30381638 11.67013276 -17.8125 14.6875 C-18.65258398 22.45486766 -18.65258398 22.45486766 -16.765625 29.84375 C-14.16786973 32.96105633 -12.07243495 34.54432557 -8.0625 35 C-4.04195347 34.61340899 -1.98574483 33.10521035 1.1875 30.6875 C3.65550047 31.83923355 5.23533565 32.73533565 7.1875 34.6875 C6.82489029 38.10834628 6.02805847 38.85064947 3.5 41.4375 C-2.01396082 45.09448641 -8.49829071 44.7070955 -14.8125 43.6875 C-20.85643162 41.05082323 -24.14659165 36.55249837 -26.8125 30.6875 C-29.14412185 23.49833262 -28.55631113 15.52783394 -25.22265625 8.80078125 C-19.34490241 -0.00770858 -10.13763587 -4.18204849 0 0 Z " fill="#F8F8F8" transform="translate(841.8125,644.3125)"/>
<path d="M0 0 C1.85329634 2.77994451 2.68563605 4.78256551 3.625 7.9375 C4.01558594 9.21947266 4.01558594 9.21947266 4.4140625 10.52734375 C5 13 5 13 5 17 C10.61 17 16.22 17 22 17 C18.83417943 20.16582057 16.57770114 22.3600449 13.125 24.8125 C11.30884955 26.27788977 11.30884955 26.27788977 10 28 C9.88794817 31.24950293 10.14320596 32.96364219 11 36 C11.37705078 37.57394531 11.37705078 37.57394531 11.76171875 39.1796875 C12.4732742 42.13003936 13.22260344 45.06642806 14 48 C13.57589844 47.62488281 13.15179687 47.24976563 12.71484375 46.86328125 C8.63482662 43.30335421 4.4486524 40.08682003 0 37 C-3.96 40.3 -7.92 43.6 -12 47 C-13.7093832 43.58123361 -11.95633777 39.93878035 -11.0625 36.375 C-10.86720703 35.57320312 -10.67191406 34.77140625 -10.47070312 33.9453125 C-9.98668398 31.96201453 -9.49413978 29.98080066 -9 28 C-9.86625 27.28972656 -10.7325 26.57945312 -11.625 25.84765625 C-12.75012785 24.91942578 -13.87512093 23.99103194 -15 23.0625 C-15.57234375 22.59392578 -16.1446875 22.12535156 -16.734375 21.64257812 C-18.17497065 20.45065672 -19.58974871 19.22767412 -21 18 C-21 17.67 -21 17.34 -21 17 C-15.72 17 -10.44 17 -5 17 C-4.54625 15.123125 -4.0925 13.24625 -3.625 11.3125 C-2.6763188 7.3884096 -1.58528554 3.7150822 0 0 Z " fill="#008E40" transform="translate(502,723)"/>
<path d="M0 0 C1.85329634 2.77994451 2.68563605 4.78256551 3.625 7.9375 C4.01558594 9.21947266 4.01558594 9.21947266 4.4140625 10.52734375 C5 13 5 13 5 17 C10.61 17 16.22 17 22 17 C18.83417943 20.16582057 16.57770114 22.3600449 13.125 24.8125 C11.30755529 26.27402086 11.30755529 26.27402086 10 28 C9.88920251 31.26852581 10.11813518 32.96246561 11 36 C11.25136719 36.97582031 11.50273438 37.95164062 11.76171875 38.95703125 C12.47049471 41.65037989 13.21871821 44.32693525 14 47 C9.89444074 45.19465363 7.17921769 42.46177661 4 39.36328125 C2.13872854 37.81794691 2.13872854 37.81794691 0.078125 38.0078125 C-2.84277426 39.40237718 -4.8896881 41.35747177 -7.25 43.5625 C-8.14203125 44.38878906 -9.0340625 45.21507812 -9.953125 46.06640625 C-10.62859375 46.70449219 -11.3040625 47.34257813 -12 48 C-13.59036003 44.81927994 -12.08571249 42.43924382 -11.0625 39.125 C-9.83344653 35.13370093 -9 32.19392746 -9 28 C-11.3963629 25.59757113 -11.3963629 25.59757113 -14.4375 23.375 C-19.92012448 19.15975104 -19.92012448 19.15975104 -21 17 C-15.39 17 -9.78 17 -4 17 C-3.566875 14.7415625 -3.566875 14.7415625 -3.125 12.4375 C-2.28329284 8.21092763 -1.25428115 4.12120949 0 0 Z " fill="#008F41" transform="translate(769,723)"/>
<path d="M0 0 C7.92 0 15.84 0 24 0 C24.09224838 4.98141263 24.17175286 9.95981736 24.21972656 14.94140625 C24.2397406 16.63291511 24.26696073 18.32435567 24.30175781 20.015625 C24.35073065 22.45850554 24.37307033 24.90046511 24.390625 27.34375 C24.41127014 28.08991577 24.43191528 28.83608154 24.45318604 29.6048584 C24.45552064 35.16963236 23.03818495 39.32589615 20 44 C15.88906417 47.86178821 11.73020011 48.33727769 6.2890625 48.29296875 C1.87522292 47.72805754 -0.96037557 45.03962443 -4 42 C-3.66555164 38.65551641 -2.21127671 36.47662991 0 34 C0.66 34 1.32 34 2 34 C2 34.66 2 35.32 2 36 C4.7770808 37.34886782 6.5778434 38.02945279 9.6875 37.8125 C12.34034619 37.14070589 12.34034619 37.14070589 14 34 C14.36798693 31.28924456 14.36798693 31.28924456 14.4140625 28.23828125 C14.45273437 27.12001953 14.49140625 26.00175781 14.53125 24.84960938 C14.5621875 23.68236328 14.593125 22.51511719 14.625 21.3125 C14.66367187 20.13365234 14.70234375 18.95480469 14.7421875 17.74023438 C14.83654057 14.82708332 14.91936242 11.91356297 15 9 C10.05 9 5.1 9 0 9 C0 6.03 0 3.06 0 0 Z " fill="#F6F6F6" transform="translate(556,725)"/>
<path d="M0 0 C8.91 0 17.82 0 27 0 C27 2.31 27 4.62 27 7 C20.73 7 14.46 7 8 7 C8 10.96 8 14.92 8 19 C13.61 19 19.22 19 25 19 C25 21.64 25 24.28 25 27 C19.39 27 13.78 27 8 27 C8 32.61 8 38.22 8 44 C5.36 44 2.72 44 0 44 C0 29.48 0 14.96 0 0 Z " fill="#F6F6F6" transform="translate(917,579)"/>
<path d="M0 0 C11.22 0 22.44 0 34 0 C34 2.64 34 5.28 34 8 C30.04 8 26.08 8 22 8 C22 20.54 22 33.08 22 46 C19.03 46 16.06 46 13 46 C13 33.46 13 20.92 13 8 C8.71 8 4.42 8 0 8 C0 5.36 0 2.72 0 0 Z " fill="#F8F8F7" transform="translate(688,726)"/>
<path d="M0 0 C8.91 0 17.82 0 27 0 C27 2.31 27 4.62 27 7 C20.73 7 14.46 7 8 7 C8 11.29 8 15.58 8 20 C13.61 20 19.22 20 25 20 C25 22.31 25 24.62 25 27 C19.39 27 13.78 27 8 27 C8 32.61 8 38.22 8 44 C5.36 44 2.72 44 0 44 C0 29.48 0 14.96 0 0 Z " fill="#FDFDFD" transform="translate(958,579)"/>
<path d="M0 0 C3.30110567 2.5729206 5.27535869 4.99810485 6.21875 9.0546875 C6.84090337 15.37991343 5.88339213 19.79881918 2.21875 25.0546875 C-0.1758919 27.31249272 -1.66102742 27.97306837 -4.92578125 28.2109375 C-8.24037478 28.07901338 -10.78484205 27.84194378 -13.4375 25.74609375 C-17.55430899 20.94713908 -18.12851195 16.70142663 -18.06640625 10.6328125 C-17.55562743 6.01481225 -15.67424438 2.60964717 -12.03125 -0.3828125 C-7.859526 -1.4257435 -3.88165211 -2.05999959 0 0 Z " fill="#030303" transform="translate(888.78125,586.9453125)"/>
<path d="M0 0 C2.97 0 5.94 0 9 0 C9 12.21 9 24.42 9 37 C15.27 37 21.54 37 28 37 C28 39.64 28 42.28 28 45 C18.76 45 9.52 45 0 45 C0 30.15 0 15.3 0 0 Z " fill="#EEEEEE" transform="translate(638,578)"/>
<path d="M0 0 C2.72360009 2.20971328 4.43101059 4.86202119 6 8 C6.55769904 13.96308973 6.50156448 18.92876868 3 24 C0.12638661 27.03325858 -1.32637477 27.91579685 -5.5 28.4375 C-10.23476653 27.84565418 -12.671976 26.56517115 -15.75 22.9375 C-17.85035038 18.00167661 -18.83317979 12.9284544 -17.33984375 7.6796875 C-15.89483907 4.50886752 -14.35232127 2.33218863 -11.8125 -0.0625 C-7.6798231 -1.44005897 -4.14315986 -1.38105329 0 0 Z " fill="#030303" transform="translate(996,652)"/>
<path d="M0 0 C3.00199932 1.85021182 4.58623103 3.77233878 6 7 C6.89589407 12.59065678 7.3249986 18.69370227 4.25 23.6875 C0.95251947 27.07657721 -0.66210347 27.85134483 -5.375 28.375 C-9.69296607 27.92831385 -11.69326548 26.7684289 -15 24 C-17.25037375 20.59382205 -17.29854086 17.58738582 -17.3125 13.5625 C-17.32925781 12.45003906 -17.34601562 11.33757813 -17.36328125 10.19140625 C-16.85141473 5.69468639 -15.23745954 3.09187607 -11.875 0.125 C-7.65822326 -1.52504307 -4.29157042 -1.43052347 0 0 Z " fill="#030303" transform="translate(553,652)"/>
<path d="M0 0 C10.56 0 21.12 0 32 0 C32 2.64 32 5.28 32 8 C28.04 8 24.08 8 20 8 C20 19.88 20 31.76 20 44 C17.36 44 14.72 44 12 44 C12 32.12 12 20.24 12 8 C8.04 8 4.08 8 0 8 C0 5.36 0 2.72 0 0 Z " fill="#FCFCFC" transform="translate(903,644)"/>
<path d="M0 0 C10.56 0 21.12 0 32 0 C32 2.64 32 5.28 32 8 C28.04 8 24.08 8 20 8 C20 19.88 20 31.76 20 44 C17.36 44 14.72 44 12 44 C12 31.79 12 19.58 12 7 C8.04 7 4.08 7 0 7 C0 4.69 0 2.38 0 0 Z " fill="#FAFAFA" transform="translate(793,579)"/>
<path d="M0 0 C2.64 0 5.28 0 8 0 C8 12.21 8 24.42 8 37 C14.27 37 20.54 37 27 37 C27 39.64 27 42.28 27 45 C18.09 45 9.18 45 0 45 C0 30.15 0 15.3 0 0 Z " fill="#FCFCFC" transform="translate(999,578)"/>
<path d="M0 0 C2.64 0 5.28 0 8 0 C8 14.85 8 29.7 8 45 C5.36 45 2.72 45 0 45 C0 30.15 0 15.3 0 0 Z " fill="#FAFAFA" transform="translate(614,578)"/>
<path d="M0 0 C2.64 0 5.28 0 8 0 C8 14.52 8 29.04 8 44 C5.36 44 2.72 44 0 44 C0 29.48 0 14.96 0 0 Z " fill="#FCFCFC" transform="translate(792,644)"/>
<path d="M0 0 C2.64 0 5.28 0 8 0 C8 14.52 8 29.04 8 44 C5.36 44 2.72 44 0 44 C0 29.48 0 14.96 0 0 Z " fill="#FCFCFC" transform="translate(1038,579)"/>
<path d="M0 0 C2.64 0 5.28 0 8 0 C8 14.52 8 29.04 8 44 C5.36 44 2.72 44 0 44 C0 29.48 0 14.96 0 0 Z " fill="#FBFBFB" transform="translate(678,578)"/>
<path d="M0 0 C2.64 0 5.28 0 8 0 C8 14.19 8 28.38 8 43 C5.36 43 2.72 43 0 43 C0 28.81 0 14.62 0 0 Z " fill="#FEFEFE" transform="translate(948,644)"/>
<path d="M0 0 C9.6092603 -0.43026539 9.6092603 -0.43026539 14 3 C15 4 15 4 15.3125 7.8125 C15.24117035 10.6504009 15.03555518 11.93227585 13.6875 14.5 C9.26196125 16.97006814 5.00172975 16.23817761 0 16 C0 10.72 0 5.44 0 0 Z " fill="#030303" transform="translate(492,586)"/>
<path d="M0 0 C2.30078125 1.51953125 2.30078125 1.51953125 4 3 C2.46356148 6.68069887 0.21849055 8.98775204 -2.625 11.75 C-3.44226563 12.54921875 -4.25953125 13.3484375 -5.1015625 14.171875 C-5.72804687 14.77515625 -6.35453125 15.3784375 -7 16 C-11.0131714 13.01878696 -14.06760212 10.02157423 -17 6 C-17 4.68 -17 3.36 -17 2 C-11.43467711 0.06423552 -5.88866475 -0.91732969 0 0 Z " fill="#EE2024" transform="translate(163,494)"/>
<path d="M0 0 C2.02225194 3.0333779 2.99347524 5.61344489 4.125 9.0625 C4.47820313 10.12597656 4.83140625 11.18945312 5.1953125 12.28515625 C6 15 6 15 6 17 C2.04 17 -1.92 17 -6 17 C-4.31108451 11.12900806 -2.53630629 5.55571853 0 0 Z " fill="#121111" transform="translate(878,654)"/>
<path d="M0 0 C0.33 0.99 0.66 1.98 1 3 C0.31550781 2.85691406 -0.36898437 2.71382813 -1.07421875 2.56640625 C-4.31053736 1.93988262 -7.55335919 1.43130921 -10.8125 0.9375 C-11.97394531 0.76089844 -13.13539063 0.58429688 -14.33203125 0.40234375 C-15.21246094 0.26957031 -16.09289062 0.13679688 -17 0 C-17 -0.33 -17 -0.66 -17 -1 C-10.87795401 -3.52867117 -5.97349959 -2.98674979 0 0 Z " fill="#0E0D0E" transform="translate(214,401)"/>
<path d="M0 0 C2.29633824 3.44450737 2.54016485 5.93812283 3 10 C1.68 10 0.36 10 -1 10 C-1.66 10.99 -2.32 11.98 -3 13 C-2.52060632 8.28596212 -2.03165952 4.33420699 0 0 Z " fill="#019E47" transform="translate(502,723)"/>
<path d="M0 0 C1.99097846 2.98646769 2.94124926 5.59687262 4 9 C0.25 12 0.25 12 -2 12 C-2.33 12.99 -2.66 13.98 -3 15 C-3.33 14.01 -3.66 13.02 -4 12 C-2.68 11.01 -1.36 10.02 0 9 C-0.185625 7.700625 -0.37125 6.40125 -0.5625 5.0625 C-0.87890625 2.84765625 -0.87890625 2.84765625 -1 1 C-0.67 0.67 -0.34 0.34 0 0 Z " fill="#260F10" transform="translate(306,410)"/>
<path d="M0 0 C0.66 0.66 1.32 1.32 2 2 C2.99 2 3.98 2 5 2 C1.535 4.97 1.535 4.97 -2 8 C-1.34 5.36 -0.68 2.72 0 0 Z " fill="#019C48" transform="translate(758,763)"/>
<path d="M0 0 C0.61875 0.350625 1.2375 0.70125 1.875 1.0625 C2.57625 1.371875 3.2775 1.68125 4 2 C4.66 1.67 5.32 1.34 6 1 C6.66 3.31 7.32 5.62 8 8 C6.85073734 7.04578192 5.70569459 6.08647955 4.5625 5.125 C3.92441406 4.59132813 3.28632813 4.05765625 2.62890625 3.5078125 C1 2 1 2 0 0 Z " fill="#019F47" transform="translate(508,763)"/>
<path d="M0 0 C-3.20380017 2.13586678 -4.01939967 2.23132175 -7.6875 2.125 C-8.89986328 2.09792969 -8.89986328 2.09792969 -10.13671875 2.0703125 C-11.05904297 2.03550781 -11.05904297 2.03550781 -12 2 C-12 1.67 -12 1.34 -12 1 C-7.58774263 -0.47075246 -4.51718381 -1.36884358 0 0 Z " fill="#261012" transform="translate(209,399)"/>
</svg>
